<svg xmlns="http://www.w3.org/2000/svg" version="1.0" viewBox="0 0 512 512" fill="#2bac5f">
    <path d="M225.5 1.6C177.4 8.1 134.1 29 98.9 62.8 62.2 97.9 39.3 142.4 31.4 194c-2.2 14-2.5 48-.6 61.5 6 41.8 22.6 81 47.9 112.8 29.2 36.7 71.8 64.7 117 76.9l11.9 3.3 23.8 31.7c13.1 17.5 24.2 31.8 24.6 31.8.4 0 11.5-14.3 24.6-31.8l23.8-31.8 10.4-2.7c78-20.5 140.6-83.5 160.7-162 5.5-21.5 6.9-33.4 6.9-57.2 0-21.8-1.3-34.4-5.5-52.5-5.3-22.8-17.7-51.7-30.6-71.5C410 47 351.4 10.2 285.6 1.5c-14.4-1.9-46.1-1.8-60.1.1zm63 61.3c51.6 11.1 93.8 43.9 116.6 90.6 29.6 60.9 18.9 133.4-27.2 183.8-23.4 25.6-54.5 43.1-90.2 50.9-8.8 1.9-13.2 2.2-31.7 2.2s-22.9-.3-31.7-2.2c-51.7-11.3-93.6-43.2-116.2-88.7-17.5-35.1-22.2-73-13.7-110.5 14.4-63.4 65.7-113.4 129.3-126 14.5-2.9 14.2-2.8 35.3-2.5 15.4.2 21.6.7 29.5 2.4z"/>
    <path d="M233.5 90.6c-57.2 9.6-101.8 53.7-112.2 110.8-2.3 12.6-2.2 36.1.1 48.6 10.7 55.7 51.6 97.4 107.6 109.6 11.8 2.6 42 2.7 53.7.1 56.1-12.1 97.2-53.9 107.9-109.7 2.3-12.5 2.4-36 .1-48.6-10.5-57.6-55.3-101.5-113.2-110.9-11-1.8-33.1-1.8-44 .1z"/>
</svg>
